<?xml version="1.0" encoding="utf-8"?>
<!-- Generator: Adobe Illustrator 27.9.0, SVG Export Plug-In . SVG Version: 6.00 Build 0)  -->
<svg version="1.1" id="Layer_1" xmlns="http://www.w3.org/2000/svg" xmlns:xlink="http://www.w3.org/1999/xlink" x="0px" y="0px"
	 viewBox="0 0 1080 1080" style="enable-background:new 0 0 1080 1080;" xml:space="preserve">
<style type="text/css">
	.st0{fill:url(#SVGID_1_);}
	.st1{fill:url(#SVGID_00000039133147461432859060000017108403076390874260_);}
	.st2{fill:url(#SVGID_00000161620079726056488820000012758503429431934339_);}
	.st3{fill:url(#SVGID_00000101820924862269951530000012736511051507940790_);}
	.st4{fill:url(#SVGID_00000052062757047593078090000003344989981402850995_);}
	.st5{fill:url(#SVGID_00000145766445143066259730000009658384666613649803_);}
	.st6{fill:none;}
	.st7{fill:url(#SVGID_00000034075779347491612170000002439137843489604523_);}
</style>
<g>
	<linearGradient id="SVGID_1_" gradientUnits="userSpaceOnUse" x1="-76.1838" y1="721.8" x2="943.7588" y2="721.8">
		<stop  offset="1.438503e-07" style="stop-color:#FFDF00"/>
		<stop  offset="0.3229" style="stop-color:#FFCC00"/>
		<stop  offset="0.6291" style="stop-color:#EDBD01"/>
		<stop  offset="0.7944" style="stop-color:#CC9900"/>
		<stop  offset="1" style="stop-color:#B8860B"/>
	</linearGradient>
	<path class="st0" d="M906.03,532.68v333.08v0.27l0.01,0.26c0.03,0.69,0.07,1.52,0.07,2.34l-0.02,0.57l-0.2,2.93
		c-1.68,20.92-18.7,37.55-39.61,38.75l-2.41,0.04H563.61V733.29h117.1h10.6v-10.6V532.68H906.03 M916.63,522.08H680.71v200.61
		h-127.7v198.83h310.87l2.79-0.04c26.27-1.39,47.69-22.22,49.8-48.49l0.21-3.04c0.04-0.42,0.04-0.85,0.04-1.31
		c0-1.01-0.04-2.03-0.08-2.87V522.08L916.63,522.08z"/>
	
		<linearGradient id="SVGID_00000160878276658670269210000010371756289841301409_" gradientUnits="userSpaceOnUse" x1="-76.1838" y1="463.3818" x2="943.7588" y2="463.3818">
		<stop  offset="1.438503e-07" style="stop-color:#FFDF00"/>
		<stop  offset="0.3229" style="stop-color:#FFCC00"/>
		<stop  offset="0.6291" style="stop-color:#EDBD01"/>
		<stop  offset="0.7944" style="stop-color:#CC9900"/>
		<stop  offset="1" style="stop-color:#B8860B"/>
	</linearGradient>
	<path style="fill:url(#SVGID_00000160878276658670269210000010371756289841301409_);" d="M905.82,429.73v66.65l-70.53,0.18
		l-4.15,0.04L689.91,497v-67.27H905.82 M916.42,419.13H679.31v88.5l151.86-0.42l4.22-0.04l81.02-0.21V419.13L916.42,419.13z"/>
	
		<linearGradient id="SVGID_00000110463445535363236610000002892142014561846449_" gradientUnits="userSpaceOnUse" x1="-76.1838" y1="358.6622" x2="943.7588" y2="358.6622">
		<stop  offset="1.438503e-07" style="stop-color:#FFDF00"/>
		<stop  offset="0.3229" style="stop-color:#FFCC00"/>
		<stop  offset="0.6291" style="stop-color:#EDBD01"/>
		<stop  offset="0.7944" style="stop-color:#CC9900"/>
		<stop  offset="1" style="stop-color:#B8860B"/>
	</linearGradient>
	<path style="fill:url(#SVGID_00000110463445535363236610000002892142014561846449_);" d="M905.82,325.01v66.65l-70.53,0.18
		l-4.15,0.04l-141.24,0.39v-67.27H905.82 M916.42,314.41H679.31v88.5l151.86-0.42l4.22-0.04l81.02-0.21V314.41L916.42,314.41z"/>
	
		<linearGradient id="SVGID_00000111881759648066516450000008825867488396244400_" gradientUnits="userSpaceOnUse" x1="-76.1838" y1="253.9426" x2="943.7588" y2="253.9426">
		<stop  offset="1.438503e-07" style="stop-color:#FFDF00"/>
		<stop  offset="0.3229" style="stop-color:#FFCC00"/>
		<stop  offset="0.6291" style="stop-color:#EDBD01"/>
		<stop  offset="0.7944" style="stop-color:#CC9900"/>
		<stop  offset="1" style="stop-color:#B8860B"/>
	</linearGradient>
	<path style="fill:url(#SVGID_00000111881759648066516450000008825867488396244400_);" d="M905.82,220.29v66.65l-70.53,0.18
		l-4.15,0.04l-141.24,0.39v-67.27H905.82 M916.42,209.69H679.31v88.5l151.86-0.42l4.22-0.04l81.02-0.21V209.69L916.42,209.69z"/>
	<g>
		<g>
			<g>
				
					<linearGradient id="SVGID_00000133491176612547608400000004421229478037983894_" gradientUnits="userSpaceOnUse" x1="658.9263" y1="539.0043" x2="658.9263" y2="539.0043">
					<stop  offset="1.438503e-07" style="stop-color:#FFDF00"/>
					<stop  offset="0.3229" style="stop-color:#FFCC00"/>
					<stop  offset="0.6291" style="stop-color:#EDBD01"/>
					<stop  offset="0.7944" style="stop-color:#CC9900"/>
					<stop  offset="1" style="stop-color:#B8860B"/>
				</linearGradient>
				<path style="fill:url(#SVGID_00000133491176612547608400000004421229478037983894_);" d="M658.93,539"/>
			</g>
		</g>
	</g>
	<g>
		
			<linearGradient id="SVGID_00000004532295849419260690000000961889362403053711_" gradientUnits="userSpaceOnUse" x1="-115.4244" y1="477.3503" x2="910.3374" y2="477.3503">
			<stop  offset="1.438503e-07" style="stop-color:#FFDF00"/>
			<stop  offset="0.3229" style="stop-color:#FFCC00"/>
			<stop  offset="0.6291" style="stop-color:#EDBD01"/>
			<stop  offset="0.7944" style="stop-color:#CC9900"/>
			<stop  offset="1" style="stop-color:#B8860B"/>
		</linearGradient>
		<path style="fill:url(#SVGID_00000004532295849419260690000000961889362403053711_);" d="M560.86,795.91H164.15V200.17
			c0-22.86,18.53-41.38,41.38-41.38h599.38v50.91h-11.3v-39.61h-585.2c-18.2,0-32.96,14.76-32.96,32.96v581.57h385.41V795.91z"/>
	</g>
	<g>
		<line class="st6" x1="473.82" y1="584.31" x2="460.18" y2="584.31"/>
		
			<linearGradient id="SVGID_00000068672529531174279150000006672560470652560799_" gradientUnits="userSpaceOnUse" x1="-150.8791" y1="489.6652" x2="973.592" y2="489.6652">
			<stop  offset="1.438503e-07" style="stop-color:#FFDF00"/>
			<stop  offset="0.3229" style="stop-color:#FFCC00"/>
			<stop  offset="0.6291" style="stop-color:#EDBD01"/>
			<stop  offset="0.7944" style="stop-color:#CC9900"/>
			<stop  offset="1" style="stop-color:#B8860B"/>
		</linearGradient>
		<polygon style="fill:url(#SVGID_00000068672529531174279150000006672560470652560799_);" points="689.91,593.89 689.44,695.71 
			259.9,695.71 260.68,694.46 266.05,685.43 267.99,682.15 270.33,678.18 271.37,676.48 272.52,674.61 515.57,674.61 501.3,651.9 
			286.04,651.9 291.44,642.87 495.7,642.87 493.66,639.61 493.74,639.61 482.54,621.01 304.47,621.01 306.25,617.96 309.22,613.06 
			309.84,612.04 476.94,612.04 476.08,610.65 476.15,610.65 460.19,584.31 326.36,584.31 327.45,582.43 327.53,582.43 
			329.97,578.31 330.99,576.59 331.81,575.28 454.27,575.28 438.52,549.8 347.07,549.8 347.07,549.65 349.8,545.13 505.76,283.62 
			676.82,593.89 		"/>
	</g>
</g>
</svg>
